<?xml version="1.0" encoding="UTF-8" standalone="no" ?>
<!DOCTYPE svg PUBLIC "-//W3C//DTD SVG 1.1//EN" "http://www.w3.org/Graphics/SVG/1.1/DTD/svg11.dtd">
<svg xmlns="http://www.w3.org/2000/svg" xmlns:xlink="http://www.w3.org/1999/xlink" version="1.1" width="1080" height="1080" viewBox="0 0 1080 1080" xml:space="preserve">
<desc>Created with Fabric.js 5.2.4</desc>
<defs>
</defs>
<g transform="matrix(1 0 0 1 540 540)" id="f7c55697-74a6-4539-a508-38a86cf2e191"  >
<rect style="stroke: none; stroke-width: 1; stroke-dasharray: none; stroke-linecap: butt; stroke-dashoffset: 0; stroke-linejoin: miter; stroke-miterlimit: 4; fill: rgb(255,255,255); fill-rule: nonzero; opacity: 1; visibility: hidden;" vector-effect="non-scaling-stroke"  x="-540" y="-540" rx="0" ry="0" width="1080" height="1080" />
</g>
<g transform="matrix(1 0 0 1 540 540)" id="3eea4ef9-4573-46a9-ad66-5844f17eb525"  >
</g>
<g transform="matrix(NaN NaN NaN NaN 0 0)"  >
<g style=""   >
		<g transform="matrix(1 0 0 1 -41.65 -10.3)"  >
<path style="stroke: none; stroke-width: 1; stroke-dasharray: none; stroke-linecap: butt; stroke-dashoffset: 0; stroke-linejoin: miter; stroke-miterlimit: 4; fill: rgb(235,0,139); fill-rule: nonzero; opacity: 1;" vector-effect="non-scaling-stroke"  transform=" translate(-36.2, -152.6)" d="M 35.4 149.1 C 35.4 149.1 35.4 150.5 36.1 151.7 C 36.7 153 38.4 154.1 38.4 154.1 L 36.699999999999996 156.1 C 36.699999999999996 156.1 36.099999999999994 155.5 34.99999999999999 154.1 C 33.89999999999999 152.7 33.99999999999999 150.1 33.99999999999999 150.1 L 35.4 149.1 z" stroke-linecap="round" />
</g>
		<g transform="matrix(1 0 0 1 -28.8 -43.2)"  >
<path style="stroke: none; stroke-width: 1; stroke-dasharray: none; stroke-linecap: butt; stroke-dashoffset: 0; stroke-linejoin: miter; stroke-miterlimit: 4; fill: rgb(0,150,128); fill-rule: nonzero; opacity: 1;" vector-effect="non-scaling-stroke"  transform=" translate(-49.05, -119.7)" d="M 46.8 117.3 L 48.3 116.2 C 48.3 116.2 48.3 117.60000000000001 49 118.8 C 49.6 120.1 51.3 121.2 51.3 121.2 L 49.599999999999994 123.2 C 49.599999999999994 123.2 48.99999999999999 122.60000000000001 47.89999999999999 121.2 C 46.7 119.8 46.8 117.3 46.8 117.3 z" stroke-linecap="round" />
</g>
		<g transform="matrix(1 0 0 1 41.6 -57.96)"  >
<path style="stroke: none; stroke-width: 1; stroke-dasharray: none; stroke-linecap: butt; stroke-dashoffset: 0; stroke-linejoin: miter; stroke-miterlimit: 4; fill: rgb(255,255,255); fill-rule: nonzero; opacity: 1;" vector-effect="non-scaling-stroke"  transform=" translate(-119.45, -104.94)" d="M 119.8 108.4 C 119.6 108.2 119 107.60000000000001 118.2 106.5 C 117.10000000000001 105.1 117.2 102.5 117.2 102.5 L 118.7 101.4 C 118.7 101.4 118.7 102.80000000000001 119.4 104 C 120 105.3 121.7 106.4 121.7 106.4 L 120.10000000000001 108.2 L 119.8 108.4 C 119.8 108.5 119.8 108.5 119.8 108.4 z" stroke-linecap="round" />
</g>
		<g transform="matrix(1 0 0 1 -25.2 26)"  >
<path style="stroke: none; stroke-width: 1; stroke-dasharray: none; stroke-linecap: butt; stroke-dashoffset: 0; stroke-linejoin: miter; stroke-miterlimit: 4; fill: rgb(240,124,116); fill-rule: nonzero; opacity: 1;" vector-effect="non-scaling-stroke"  transform=" translate(-52.65, -188.9)" d="M 52.1 192.4 L 50.4 190.4 C 50.4 190.4 52.1 189.3 52.699999999999996 188 C 53.3 186.7 53.4 185.4 53.4 185.4 L 54.9 186.5 C 54.9 186.5 55 189 53.9 190.5 C 52.7 191.8 52.1 192.4 52.1 192.4 z" stroke-linecap="round" />
</g>
		<g transform="matrix(1 0 0 1 -39.46 60.95)"  >
<path style="stroke: none; stroke-width: 1; stroke-dasharray: none; stroke-linecap: butt; stroke-dashoffset: 0; stroke-linejoin: miter; stroke-miterlimit: 4; fill: rgb(138,212,234); fill-rule: nonzero; opacity: 1;" vector-effect="non-scaling-stroke"  transform=" translate(-38.39, -223.85)" d="M 38.4 222.9 C 39 221.6 39.1 220.3 39.1 220.3 L 40.6 221.4 C 40.6 221.4 40.7 223.9 39.6 225.4 C 38.5 226.8 37.9 227.4 37.9 227.4 L 36.199999999999996 225.4 C 36 225.3 37.8 224.1 38.4 222.9 z" stroke-linecap="round" />
</g>
		<g transform="matrix(1 0 0 1 17.55 -60.95)"  >
<path style="stroke: none; stroke-width: 1; stroke-dasharray: none; stroke-linecap: butt; stroke-dashoffset: 0; stroke-linejoin: miter; stroke-miterlimit: 4; fill: rgb(210,67,74); fill-rule: nonzero; opacity: 1;" vector-effect="non-scaling-stroke"  transform=" translate(-95.4, -101.95)" d="M 95.4 101 C 96 99.7 96.10000000000001 98.4 96.10000000000001 98.4 L 97.60000000000001 99.5 C 97.60000000000001 99.5 97.7 102 96.60000000000001 103.5 C 95.50000000000001 104.9 94.9 105.5 94.9 105.5 L 93.2 103.5 C 93.1 103.4 94.8 102.3 95.4 101 z" stroke-linecap="round" />
</g>
</g>
</g>
<g transform="matrix(3.86 0 0 4.57 524.53 708.3)"  >
<g style="opacity: 1;"   >
		<g transform="matrix(1 0 0 1 0.09 5.01)" id="completed-graduate-during-coronavirus"  >
<path style="stroke: none; stroke-width: 1; stroke-dasharray: none; stroke-linecap: butt; stroke-dashoffset: 0; stroke-linejoin: miter; stroke-miterlimit: 4; fill: rgb(239,222,201); fill-rule: nonzero; opacity: 1;" vector-effect="non-scaling-stroke"  transform=" translate(-150.09, -155.01)" d="M 281.6 232.4 C 284.8 220.8 282.5 204.1 279.40000000000003 198 C 273.1 185.7 260.70000000000005 183.5 250.10000000000002 174.7 C 230.00000000000003 158 232.10000000000002 120.49999999999999 228.70000000000002 108.39999999999999 C 216.8 66.29999999999998 164.90000000000003 71.6 145.70000000000002 99.1 C 142.50000000000003 103.69999999999999 132.20000000000002 119.5 113.00000000000001 125.39999999999999 C 91.20000000000002 132 71.9 123.39999999999999 51.100000000000016 134.6 C 44.80000000000002 138 38.20000000000002 143.4 33.500000000000014 148.7 C 26.800000000000015 156.2 21.900000000000013 165.2 19.300000000000015 174.89999999999998 C 14.100000000000016 194.29999999999998 18.100000000000016 215.59999999999997 28.900000000000013 232.39999999999998 L 281.6 232.39999999999998 z" stroke-linecap="round" />
</g>
		<g transform="matrix(1 0 0 1 35.55 11.35)" id="completed-graduate-during-coronavirus"  >
<rect style="stroke: none; stroke-width: 1; stroke-dasharray: none; stroke-linecap: butt; stroke-dashoffset: 0; stroke-linejoin: miter; stroke-miterlimit: 4; fill: rgb(219,202,193); fill-rule: nonzero; opacity: 1;" vector-effect="non-scaling-stroke"  x="-40.95" y="-54.45" rx="0" ry="0" width="81.9" height="108.9" />
</g>
		<g transform="matrix(1 0 0 1 35.45 11.35)" id="completed-graduate-during-coronavirus"  >
<path style="stroke: none; stroke-width: 1; stroke-dasharray: none; stroke-linecap: butt; stroke-dashoffset: 0; stroke-linejoin: miter; stroke-miterlimit: 4; fill: rgb(255,255,255); fill-rule: nonzero; opacity: 0.5;" vector-effect="non-scaling-stroke"  transform=" translate(-185.45, -161.35)" d="M 226.4 143.4 L 226.4 142.5 L 200.6 142.5 L 200.6 106.9 L 199.7 106.9 L 199.7 142.5 L 171.7 142.5 L 171.7 106.9 L 170.79999999999998 106.9 L 170.79999999999998 142.5 L 144.49999999999997 142.5 L 144.49999999999997 143.4 L 170.79999999999998 143.4 L 170.79999999999998 182.2 L 144.49999999999997 182.2 L 144.49999999999997 183.1 L 170.79999999999998 183.1 L 170.79999999999998 215.8 L 171.7 215.8 L 171.7 183.10000000000002 L 199.7 183.10000000000002 L 199.7 215.8 L 200.6 215.8 L 200.6 183.10000000000002 L 226.4 183.10000000000002 L 226.4 182.20000000000002 L 200.6 182.20000000000002 L 200.6 143.40000000000003 L 226.4 143.40000000000003 z M 199.8 182.2 L 171.8 182.2 L 171.8 143.39999999999998 L 199.8 143.39999999999998 L 199.8 182.2 z" stroke-linecap="round" />
</g>
		<g transform="matrix(1 0 0 1 -3.76 -60.05)" id="completed-graduate-during-coronavirus"  >
<path style="stroke: none; stroke-width: 1; stroke-dasharray: none; stroke-linecap: butt; stroke-dashoffset: 0; stroke-linejoin: miter; stroke-miterlimit: 4; fill: rgb(119,67,78); fill-rule: nonzero; opacity: 1;" vector-effect="non-scaling-stroke"  transform=" translate(-146.24, -89.95)" d="M 156.9 102 L 134.9 101.4 C 133.5 95.60000000000001 132 88.7 132.20000000000002 86.9 C 132.4 85.7 132.8 85.10000000000001 133.3 84.9 C 134.5 84.4 135.5 83.5 136.10000000000002 82.5 C 137.50000000000003 80.1 141.10000000000002 77.1 149.8 78.1 C 155.3 78.69999999999999 159.3 82.5 159.5 84 C 159.7 85.5 159.1 86.6 159.1 86.6 C 159.1 86.6 160.9 86.89999999999999 160.1 90.1 C 159.9 91.7 158.4 97.1 156.9 102 z" stroke-linecap="round" />
</g>
		<g transform="matrix(1 0 0 1 -3.7 -41.1)" id="completed-graduate-during-coronavirus"  >
<rect style="stroke: none; stroke-width: 1; stroke-dasharray: none; stroke-linecap: butt; stroke-dashoffset: 0; stroke-linejoin: miter; stroke-miterlimit: 4; fill: rgb(248,173,156); fill-rule: nonzero; opacity: 1;" vector-effect="non-scaling-stroke"  x="-5.1" y="-7.4" rx="0" ry="0" width="10.2" height="14.8" />
</g>
		<g transform="matrix(1 0 0 1 -3.83 -51.75)" id="completed-graduate-during-coronavirus"  >
<path style="stroke: none; stroke-width: 1; stroke-dasharray: none; stroke-linecap: butt; stroke-dashoffset: 0; stroke-linejoin: miter; stroke-miterlimit: 4; fill: rgb(248,173,156); fill-rule: nonzero; opacity: 1;" vector-effect="non-scaling-stroke"  transform=" translate(-146.17, -98.25)" d="M 136.4 102.1 C 136.4 102.1 134.5 101.8 132.8 100.3 C 131.10000000000002 98.8 131.5 96.3 133.3 95.7 C 135.10000000000002 95.2 136.60000000000002 97 136.60000000000002 97 L 137.40000000000003 88.2 C 137.50000000000003 86.9 138.60000000000002 86 140.00000000000003 86 L 153.40000000000003 86.4 C 154.80000000000004 86.4 155.80000000000004 87.5 155.80000000000004 88.80000000000001 L 155.70000000000005 97.30000000000001 C 155.80000000000004 97.30000000000001 158.80000000000004 94.30000000000001 160.20000000000005 96.9 C 162.30000000000004 100.80000000000001 155.80000000000004 102.9 155.80000000000004 102.9 C 155.80000000000004 102.9 152.20000000000005 110.60000000000001 146.60000000000005 110.5 C 140.2 110.3 136.4 102.1 136.4 102.1 z" stroke-linecap="round" />
</g>
		<g transform="matrix(1 -0.02 0.02 1 -8.91 -57.5)" id="completed-graduate-during-coronavirus"  >
<ellipse style="stroke: none; stroke-width: 1; stroke-dasharray: none; stroke-linecap: butt; stroke-dashoffset: 0; stroke-linejoin: miter; stroke-miterlimit: 4; fill: rgb(77,30,51); fill-rule: nonzero; opacity: 1;" vector-effect="non-scaling-stroke"  cx="0" cy="0" rx="3.2" ry="0.5" />
</g>
		<g transform="matrix(0.04 -1 1 0.04 1.63 -57.28)" id="completed-graduate-during-coronavirus"  >
<ellipse style="stroke: none; stroke-width: 1; stroke-dasharray: none; stroke-linecap: butt; stroke-dashoffset: 0; stroke-linejoin: miter; stroke-miterlimit: 4; fill: rgb(77,30,51); fill-rule: nonzero; opacity: 1;" vector-effect="non-scaling-stroke"  cx="0" cy="0" rx="0.5" ry="3.1" />
</g>
		<g transform="matrix(1 0 0 1 -3.6 -46.14)" id="completed-graduate-during-coronavirus"  >
<path style="stroke: none; stroke-width: 1; stroke-dasharray: none; stroke-linecap: butt; stroke-dashoffset: 0; stroke-linejoin: miter; stroke-miterlimit: 4; fill: rgb(208,132,135); fill-rule: nonzero; opacity: 1;" vector-effect="non-scaling-stroke"  transform=" translate(-146.4, -103.86)" d="M 145.9 110.4 C 144.3 110.30000000000001 142.70000000000002 109.80000000000001 141.3 108.9 C 141.10000000000002 108.80000000000001 141.10000000000002 108.60000000000001 141.20000000000002 108.4 L 141.20000000000002 108.4 C 141.3 108.30000000000001 141.50000000000003 108.2 141.70000000000002 108.30000000000001 C 144.50000000000003 110.10000000000001 148.10000000000002 110.20000000000002 150.9 108.4 C 151.1 108.30000000000001 151.3 108.30000000000001 151.4 108.5 C 151.5 108.7 151.5 108.9 151.3 109 C 149.6 110 147.8 110.5 145.9 110.4 z M 135.5 98.7 C 135.2 97.60000000000001 133.7 97.3 133.7 97.3 C 133.7 97.3 133.6 97.3 133.6 97.39999999999999 C 133.6 97.39999999999999 133.6 97.49999999999999 133.7 97.49999999999999 C 133.7 97.49999999999999 135.1 97.69999999999999 135.39999999999998 98.69999999999999 C 135.39999999999998 98.79999999999998 135.49999999999997 98.99999999999999 135.49999999999997 99.1 C 135.19999999999996 99.19999999999999 134.39999999999998 99.6 134.09999999999997 99.39999999999999 C 133.69999999999996 99.19999999999999 133.69999999999996 98.89999999999999 133.69999999999996 98.89999999999999 C 133.69999999999996 98.89999999999999 133.69999999999996 98.8 133.59999999999997 98.8 C 133.59999999999997 98.8 133.49999999999997 98.8 133.49999999999997 98.89999999999999 C 133.49999999999997 98.89999999999999 133.49999999999997 99.39999999999999 133.99999999999997 99.6 C 134.09999999999997 99.6 134.19999999999996 99.69999999999999 134.29999999999998 99.69999999999999 C 134.7 99.69999999999999 135.29999999999998 99.39999999999999 135.49999999999997 99.39999999999999 C 135.59999999999997 100.19999999999999 135.39999999999998 100.89999999999999 135.39999999999998 100.89999999999999 C 135.39999999999998 100.89999999999999 135.39999999999998 100.99999999999999 135.49999999999997 100.99999999999999 C 135.49999999999997 100.99999999999999 135.49999999999997 100.99999999999999 135.49999999999997 100.99999999999999 C 135.49999999999997 100.99999999999999 135.59999999999997 100.99999999999999 135.59999999999997 100.89999999999999 C 135.5 100.8 135.8 99.8 135.5 98.7 z M 157.3 98.7 C 157.60000000000002 97.60000000000001 159.10000000000002 97.3 159.10000000000002 97.3 C 159.10000000000002 97.3 159.20000000000002 97.3 159.20000000000002 97.39999999999999 C 159.20000000000002 97.39999999999999 159.20000000000002 97.49999999999999 159.10000000000002 97.49999999999999 C 159.10000000000002 97.49999999999999 157.70000000000002 97.69999999999999 157.40000000000003 98.69999999999999 C 157.40000000000003 98.79999999999998 157.30000000000004 98.99999999999999 157.30000000000004 99.1 C 157.60000000000005 99.19999999999999 158.40000000000003 99.6 158.70000000000005 99.39999999999999 C 159.10000000000005 99.19999999999999 159.10000000000005 98.89999999999999 159.10000000000005 98.89999999999999 C 159.10000000000005 98.89999999999999 159.10000000000005 98.8 159.20000000000005 98.8 C 159.20000000000005 98.8 159.30000000000004 98.8 159.30000000000004 98.89999999999999 C 159.30000000000004 98.89999999999999 159.30000000000004 99.39999999999999 158.80000000000004 99.6 C 158.70000000000005 99.6 158.60000000000005 99.69999999999999 158.50000000000003 99.69999999999999 C 158.10000000000002 99.69999999999999 157.50000000000003 99.39999999999999 157.30000000000004 99.39999999999999 C 157.20000000000005 100.19999999999999 157.40000000000003 100.89999999999999 157.40000000000003 100.89999999999999 C 157.40000000000003 100.89999999999999 157.40000000000003 100.99999999999999 157.30000000000004 100.99999999999999 C 157.30000000000004 100.99999999999999 157.30000000000004 100.99999999999999 157.30000000000004 100.99999999999999 C 157.30000000000004 100.99999999999999 157.20000000000005 100.99999999999999 157.20000000000005 100.89999999999999 C 157.3 100.8 157 99.8 157.3 98.7 z" stroke-linecap="round" />
</g>
		<g transform="matrix(1 0 0 1 -2.31 -61.3)" id="completed-graduate-during-coronavirus"  >
<path style="stroke: none; stroke-width: 1; stroke-dasharray: none; stroke-linecap: butt; stroke-dashoffset: 0; stroke-linejoin: miter; stroke-miterlimit: 4; fill: rgb(119,67,78); fill-rule: nonzero; opacity: 1;" vector-effect="non-scaling-stroke"  transform=" translate(-147.69, -88.7)" d="M 156.8 83.4 C 159.70000000000002 83.5 161.8 86.2 161.10000000000002 89.10000000000001 C 161.10000000000002 89.10000000000001 161.10000000000002 89.10000000000001 161.10000000000002 89.10000000000001 C 161.10000000000002 89.2 161.00000000000003 89.4 160.8 89.4 C 159.8 89.9 159.20000000000002 90.80000000000001 159.20000000000002 91.9 L 159.10000000000002 94.5 C 159.10000000000002 94.5 156.10000000000002 93.6 155.90000000000003 92 C 155.70000000000005 90.4 155.70000000000005 90.4 155.70000000000005 90.4 C 155.70000000000005 90.4 150.50000000000006 91.10000000000001 146.70000000000005 89.7 C 142.90000000000003 88.3 141.10000000000005 86.60000000000001 141.10000000000005 86.60000000000001 C 140.50000000000006 87.9 139.20000000000005 88.9 137.60000000000005 89.00000000000001 L 137.30000000000004 89.00000000000001 L 136.00000000000003 93.00000000000001 L 134.70000000000002 93.00000000000001 C 134.70000000000002 93.00000000000001 134.50000000000003 91.60000000000001 134.20000000000002 89.90000000000002 C 133.70000000000002 86.10000000000002 136.70000000000002 82.80000000000003 140.50000000000003 82.90000000000002 L 156.8 83.4 z" stroke-linecap="round" />
</g>
		<g transform="matrix(1 0 0 1 1.8 -52.3)" id="completed-graduate-during-coronavirus"  >
<circle style="stroke: none; stroke-width: 1; stroke-dasharray: none; stroke-linecap: butt; stroke-dashoffset: 0; stroke-linejoin: miter; stroke-miterlimit: 4; fill: rgb(207,116,146); fill-rule: nonzero; opacity: 1;" vector-effect="non-scaling-stroke"  cx="0" cy="0" r="0.1" />
</g>
		<g transform="matrix(1 0 0 1 1.1 -51.9)" id="completed-graduate-during-coronavirus"  >
<circle style="stroke: none; stroke-width: 1; stroke-dasharray: none; stroke-linecap: butt; stroke-dashoffset: 0; stroke-linejoin: miter; stroke-miterlimit: 4; fill: rgb(207,116,146); fill-rule: nonzero; opacity: 1;" vector-effect="non-scaling-stroke"  cx="0" cy="0" r="0.1" />
</g>
		<g transform="matrix(1 0 0 1 1.6 -51.6)" id="completed-graduate-during-coronavirus"  >
<circle style="stroke: none; stroke-width: 1; stroke-dasharray: none; stroke-linecap: butt; stroke-dashoffset: 0; stroke-linejoin: miter; stroke-miterlimit: 4; fill: rgb(207,116,146); fill-rule: nonzero; opacity: 1;" vector-effect="non-scaling-stroke"  cx="0" cy="0" r="0.1" />
</g>
		<g transform="matrix(1 0 0 1 2.7 -51.8)" id="completed-graduate-during-coronavirus"  >
<circle style="stroke: none; stroke-width: 1; stroke-dasharray: none; stroke-linecap: butt; stroke-dashoffset: 0; stroke-linejoin: miter; stroke-miterlimit: 4; fill: rgb(207,116,146); fill-rule: nonzero; opacity: 1;" vector-effect="non-scaling-stroke"  cx="0" cy="0" r="0.1" />
</g>
		<g transform="matrix(1 0 0 1 2.4 -50.9)" id="completed-graduate-during-coronavirus"  >
<circle style="stroke: none; stroke-width: 1; stroke-dasharray: none; stroke-linecap: butt; stroke-dashoffset: 0; stroke-linejoin: miter; stroke-miterlimit: 4; fill: rgb(207,116,146); fill-rule: nonzero; opacity: 1;" vector-effect="non-scaling-stroke"  cx="0" cy="0" r="0.1" />
</g>
		<g transform="matrix(1 0 0 1 1.8 -50.1)" id="completed-graduate-during-coronavirus"  >
<circle style="stroke: none; stroke-width: 1; stroke-dasharray: none; stroke-linecap: butt; stroke-dashoffset: 0; stroke-linejoin: miter; stroke-miterlimit: 4; fill: rgb(207,116,146); fill-rule: nonzero; opacity: 1;" vector-effect="non-scaling-stroke"  cx="0" cy="0" r="0.1" />
</g>
		<g transform="matrix(1 0 0 1 1.1 -50.9)" id="completed-graduate-during-coronavirus"  >
<circle style="stroke: none; stroke-width: 1; stroke-dasharray: none; stroke-linecap: butt; stroke-dashoffset: 0; stroke-linejoin: miter; stroke-miterlimit: 4; fill: rgb(207,116,146); fill-rule: nonzero; opacity: 1;" vector-effect="non-scaling-stroke"  cx="0" cy="0" r="0.1" />
</g>
		<g transform="matrix(1 0 0 1 -10 -52.3)" id="completed-graduate-during-coronavirus"  >
<circle style="stroke: none; stroke-width: 1; stroke-dasharray: none; stroke-linecap: butt; stroke-dashoffset: 0; stroke-linejoin: miter; stroke-miterlimit: 4; fill: rgb(207,116,146); fill-rule: nonzero; opacity: 1;" vector-effect="non-scaling-stroke"  cx="0" cy="0" r="0.1" />
</g>
		<g transform="matrix(1 0 0 1 -9.3 -51.9)" id="completed-graduate-during-coronavirus"  >
<circle style="stroke: none; stroke-width: 1; stroke-dasharray: none; stroke-linecap: butt; stroke-dashoffset: 0; stroke-linejoin: miter; stroke-miterlimit: 4; fill: rgb(207,116,146); fill-rule: nonzero; opacity: 1;" vector-effect="non-scaling-stroke"  cx="0" cy="0" r="0.1" />
</g>
		<g transform="matrix(1 0 0 1 -9.8 -51.6)" id="completed-graduate-during-coronavirus"  >
<circle style="stroke: none; stroke-width: 1; stroke-dasharray: none; stroke-linecap: butt; stroke-dashoffset: 0; stroke-linejoin: miter; stroke-miterlimit: 4; fill: rgb(207,116,146); fill-rule: nonzero; opacity: 1;" vector-effect="non-scaling-stroke"  cx="0" cy="0" r="0.1" />
</g>
		<g transform="matrix(1 0 0 1 -10.9 -51.8)" id="completed-graduate-during-coronavirus"  >
<circle style="stroke: none; stroke-width: 1; stroke-dasharray: none; stroke-linecap: butt; stroke-dashoffset: 0; stroke-linejoin: miter; stroke-miterlimit: 4; fill: rgb(207,116,146); fill-rule: nonzero; opacity: 1;" vector-effect="non-scaling-stroke"  cx="0" cy="0" r="0.1" />
</g>
		<g transform="matrix(1 0 0 1 -10.6 -50.9)" id="completed-graduate-during-coronavirus"  >
<circle style="stroke: none; stroke-width: 1; stroke-dasharray: none; stroke-linecap: butt; stroke-dashoffset: 0; stroke-linejoin: miter; stroke-miterlimit: 4; fill: rgb(207,116,146); fill-rule: nonzero; opacity: 1;" vector-effect="non-scaling-stroke"  cx="0" cy="0" r="0.1" />
</g>
		<g transform="matrix(1 0 0 1 -10 -50.1)" id="completed-graduate-during-coronavirus"  >
<circle style="stroke: none; stroke-width: 1; stroke-dasharray: none; stroke-linecap: butt; stroke-dashoffset: 0; stroke-linejoin: miter; stroke-miterlimit: 4; fill: rgb(207,116,146); fill-rule: nonzero; opacity: 1;" vector-effect="non-scaling-stroke"  cx="0" cy="0" r="0.1" />
</g>
		<g transform="matrix(1 0 0 1 -9.3 -50.9)" id="completed-graduate-during-coronavirus"  >
<circle style="stroke: none; stroke-width: 1; stroke-dasharray: none; stroke-linecap: butt; stroke-dashoffset: 0; stroke-linejoin: miter; stroke-miterlimit: 4; fill: rgb(207,116,146); fill-rule: nonzero; opacity: 1;" vector-effect="non-scaling-stroke"  cx="0" cy="0" r="0.1" />
</g>
		<g transform="matrix(1 0 0 1 -8.75 -67.23)" id="completed-graduate-during-coronavirus"  >
<path style="stroke: none; stroke-width: 1; stroke-dasharray: none; stroke-linecap: butt; stroke-dashoffset: 0; stroke-linejoin: miter; stroke-miterlimit: 4; fill: rgb(116,68,74); fill-rule: nonzero; opacity: 1;" vector-effect="non-scaling-stroke"  transform=" translate(-141.25, -82.77)" d="M 133.5 88.6 C 132.9 88.1 132.4 87.1 132.4 86.19999999999999 C 132.4 85.6 132.6 84.99999999999999 133 84.69999999999999 L 133.2 84.49999999999999 C 134.1 83.69999999999999 135.6 82.59999999999998 136.1 81.59999999999998 C 136.79999999999998 80.19999999999997 139 78.29999999999998 141.79999999999998 77.39999999999998 C 143.79999999999998 76.79999999999998 146.79999999999998 76.49999999999997 150.1 78.29999999999998 L 149.9 78.59999999999998 C 146.6 76.79999999999998 143.70000000000002 77.09999999999998 141.8 77.69999999999997 C 139.10000000000002 78.49999999999997 137 80.29999999999997 136.3 81.69999999999997 C 135.8 82.79999999999997 134.3 83.99999999999997 133.3 84.79999999999997 L 133.10000000000002 84.99999999999997 C 132.60000000000002 85.39999999999998 132.60000000000002 85.89999999999998 132.60000000000002 86.29999999999997 C 132.60000000000002 87.19999999999997 133.10000000000002 88.09999999999997 133.60000000000002 88.39999999999996 L 133.5 88.6 z" stroke-linecap="round" />
</g>
		<g transform="matrix(1 0 0 1 -8.68 -53.76)" id="completed-graduate-during-coronavirus"  >
<path style="stroke: none; stroke-width: 1; stroke-dasharray: none; stroke-linecap: butt; stroke-dashoffset: 0; stroke-linejoin: miter; stroke-miterlimit: 4; fill: rgb(255,255,255); fill-rule: nonzero; opacity: 1;" vector-effect="non-scaling-stroke"  transform=" translate(-141.32, -96.24)" d="M 139.4 96.3 C 139.4 96.3 140 97.1 141.3 97 C 142.60000000000002 96.9 142.70000000000002 96.5 143.10000000000002 96.5 C 143.50000000000003 96.5 143.00000000000003 95.7 142.20000000000002 95.6 C 140.2 95.1 139.4 96.3 139.4 96.3 z" stroke-linecap="round" />
</g>
		<g transform="matrix(1 0 0 1 -8.75 -54.1)" id="completed-graduate-during-coronavirus"  >
<path style="stroke: none; stroke-width: 1; stroke-dasharray: none; stroke-linecap: butt; stroke-dashoffset: 0; stroke-linejoin: miter; stroke-miterlimit: 4; fill: rgb(43,29,48); fill-rule: nonzero; opacity: 1;" vector-effect="non-scaling-stroke"  transform=" translate(-141.25, -95.9)" d="M 143.2 96.3 L 143.2 96.3 C 143.39999999999998 96.3 143.5 96.1 143.29999999999998 96 C 142.99999999999997 95.7 142.39999999999998 95.4 141.49999999999997 95.4 C 139.79999999999998 95.30000000000001 139.09999999999997 96.30000000000001 139.09999999999997 96.30000000000001 L 139.29999999999995 96.4 C 139.29999999999995 96.4 140.09999999999997 95.7 141.09999999999997 95.60000000000001 C 142.2 95.4 143.2 96.3 143.2 96.3 z" stroke-linecap="round" />
</g>
		<g transform="matrix(1 0 0 1 -8.7 -53.82)" id="completed-graduate-during-coronavirus"  >
<path style="stroke: none; stroke-width: 1; stroke-dasharray: none; stroke-linecap: butt; stroke-dashoffset: 0; stroke-linejoin: miter; stroke-miterlimit: 4; fill: rgb(43,29,48); fill-rule: nonzero; opacity: 1;" vector-effect="non-scaling-stroke"  transform=" translate(-141.3, -96.18)" d="M 140.2 96 C 140.2 96.5 140.7 96.9 141.29999999999998 96.9 C 141.89999999999998 96.9 142.39999999999998 96.5 142.39999999999998 96.10000000000001 C 142.39999999999998 95.60000000000001 141.89999999999998 95.50000000000001 141.29999999999998 95.50000000000001 C 140.7 95.4 140.2 95.5 140.2 96 z" stroke-linecap="round" />
</g>
		<g transform="matrix(0.02 -1 1 0.02 -8.18 -53.96)" id="completed-graduate-during-coronavirus"  >
<circle style="stroke: none; stroke-width: 1; stroke-dasharray: none; stroke-linecap: butt; stroke-dashoffset: 0; stroke-linejoin: miter; stroke-miterlimit: 4; fill: rgb(255,255,255); fill-rule: nonzero; opacity: 1;" vector-effect="non-scaling-stroke"  cx="0" cy="0" r="0.2" />
</g>
		<g transform="matrix(1 0 0 1 0.98 -53.76)" id="completed-graduate-during-coronavirus"  >
<path style="stroke: none; stroke-width: 1; stroke-dasharray: none; stroke-linecap: butt; stroke-dashoffset: 0; stroke-linejoin: miter; stroke-miterlimit: 4; fill: rgb(255,255,255); fill-rule: nonzero; opacity: 1;" vector-effect="non-scaling-stroke"  transform=" translate(-150.98, -96.24)" d="M 152.9 96.3 C 152.9 96.3 152.3 97.1 151 97 C 149.7 97 149.6 96.5 149.2 96.5 C 148.79999999999998 96.5 149.29999999999998 95.7 150.1 95.6 C 152.1 95.1 152.9 96.3 152.9 96.3 z" stroke-linecap="round" />
</g>
		<g transform="matrix(1 0 0 1 1.05 -54.1)" id="completed-graduate-during-coronavirus"  >
<path style="stroke: none; stroke-width: 1; stroke-dasharray: none; stroke-linecap: butt; stroke-dashoffset: 0; stroke-linejoin: miter; stroke-miterlimit: 4; fill: rgb(43,29,48); fill-rule: nonzero; opacity: 1;" vector-effect="non-scaling-stroke"  transform=" translate(-151.05, -95.9)" d="M 149.1 96.3 L 149.1 96.3 C 148.9 96.3 148.79999999999998 96.1 149 96 C 149.3 95.7 149.9 95.4 150.8 95.4 C 152.5 95.30000000000001 153.20000000000002 96.30000000000001 153.20000000000002 96.30000000000001 L 153.00000000000003 96.4 C 153.00000000000003 96.4 152.20000000000002 95.7 151.20000000000002 95.60000000000001 C 150.1 95.4 149.1 96.3 149.1 96.3 z" stroke-linecap="round" />
</g>
		<g transform="matrix(1 0 0 1 0.9 -53.82)" id="completed-graduate-during-coronavirus"  >
<path style="stroke: none; stroke-width: 1; stroke-dasharray: none; stroke-linecap: butt; stroke-dashoffset: 0; stroke-linejoin: miter; stroke-miterlimit: 4; fill: rgb(43,29,48); fill-rule: nonzero; opacity: 1;" vector-effect="non-scaling-stroke"  transform=" translate(-150.9, -96.18)" d="M 152 96 C 152 96.5 151.5 96.9 150.9 96.9 C 150.3 96.9 149.8 96.5 149.8 96.10000000000001 C 149.8 95.70000000000002 150.3 95.50000000000001 150.9 95.50000000000001 C 151.5 95.4 152 95.5 152 96 z" stroke-linecap="round" />
</g>
		<g transform="matrix(1 -0.02 0.02 1 0.51 -53.9)" id="completed-graduate-during-coronavirus"  >
<circle style="stroke: none; stroke-width: 1; stroke-dasharray: none; stroke-linecap: butt; stroke-dashoffset: 0; stroke-linejoin: miter; stroke-miterlimit: 4; fill: rgb(255,255,255); fill-rule: nonzero; opacity: 1;" vector-effect="non-scaling-stroke"  cx="0" cy="0" r="0.2" />
</g>
		<g transform="matrix(1 0 0 1 -3.85 -30.7)" id="completed-graduate-during-coronavirus"  >
<polygon style="stroke: none; stroke-width: 1; stroke-dasharray: none; stroke-linecap: butt; stroke-dashoffset: 0; stroke-linejoin: miter; stroke-miterlimit: 4; fill: rgb(248,173,156); fill-rule: nonzero; opacity: 1;" vector-effect="non-scaling-stroke"  points="-4.85,-6.4 -9.95,0.4 -8.05,4.2 -6.35,6.1 5.85,6.4 7.65,3.7 9.95,0.4 5.25,-6.4 " />
</g>
		<g transform="matrix(1 0 0 1 -3.55 -45.84)" id="completed-graduate-during-coronavirus"  >
<path style="stroke: none; stroke-width: 1; stroke-dasharray: none; stroke-linecap: butt; stroke-dashoffset: 0; stroke-linejoin: miter; stroke-miterlimit: 4; fill: rgb(255,255,255); fill-rule: nonzero; opacity: 1;" vector-effect="non-scaling-stroke"  transform=" translate(-146.45, -104.16)" d="M 151.1 98.8 C 150.9 98.7 150.7 98.7 150.5 98.6 C 147.8 97.69999999999999 144.9 97.69999999999999 142.2 98.6 C 142 98.69999999999999 141.79999999999998 98.69999999999999 141.6 98.8 C 140.7 99.1 139.9 99.3 139.2 99.39999999999999 C 138.39999999999998 99.49999999999999 137.79999999999998 100.3 137.89999999999998 101.1 L 138.29999999999998 104.8 C 138.29999999999998 105.1 138.39999999999998 105.39999999999999 138.6 105.6 C 139 106.3 140 107.6 141.7 108.8 C 141.7 108.8 141.7 108.8 141.79999999999998 108.89999999999999 C 144.6 110.89999999999999 148.39999999999998 110.89999999999999 151.2 108.89999999999999 C 151.2 108.89999999999999 151.2 108.89999999999999 151.29999999999998 108.8 C 152.89999999999998 107.6 153.99999999999997 106.3 154.39999999999998 105.6 C 154.59999999999997 105.3 154.7 105 154.79999999999998 104.6 L 154.99999999999997 101 C 155.09999999999997 100.2 154.49999999999997 99.4 153.59999999999997 99.3 C 152.8 99.3 152 99.2 151.1 98.8 z" stroke-linecap="round" />
</g>
		<g transform="matrix(1 0 0 1 5.05 -51.75)" id="completed-graduate-during-coronavirus"  >
<line style="stroke: rgb(255,255,255); stroke-width: 0.323; stroke-dasharray: none; stroke-linecap: round; stroke-dashoffset: 0; stroke-linejoin: round; stroke-miterlimit: 10; fill: none; fill-rule: nonzero; opacity: 1;" vector-effect="non-scaling-stroke"  x1="-0.9500000000000028" y1="2.3499999999999943" x2="0.9500000000000028" y2="-2.3499999999999943" />
</g>
		<g transform="matrix(1 0 0 1 -12.55 -51.3)" id="completed-graduate-during-coronavirus"  >
<line style="stroke: rgb(255,255,255); stroke-width: 0.323; stroke-dasharray: none; stroke-linecap: round; stroke-dashoffset: 0; stroke-linejoin: round; stroke-miterlimit: 10; fill: none; fill-rule: nonzero; opacity: 1;" vector-effect="non-scaling-stroke"  x1="1.25" y1="1.8999999999999986" x2="-1.25" y2="-1.8999999999999986" />
</g>
		<g transform="matrix(1 0 0 1 5.15 -46.5)" id="completed-graduate-during-coronavirus"  >
<line style="stroke: rgb(255,255,255); stroke-width: 0.323; stroke-dasharray: none; stroke-linecap: round; stroke-dashoffset: 0; stroke-linejoin: round; stroke-miterlimit: 10; fill: none; fill-rule: nonzero; opacity: 1;" vector-effect="non-scaling-stroke"  x1="-0.8499999999999943" y1="1.5999999999999943" x2="0.8499999999999943" y2="-1.5999999999999943" />
</g>
		<g transform="matrix(1 0 0 1 -12.45 -46.25)" id="completed-graduate-during-coronavirus"  >
<line style="stroke: rgb(255,255,255); stroke-width: 0.323; stroke-dasharray: none; stroke-linecap: round; stroke-dashoffset: 0; stroke-linejoin: round; stroke-miterlimit: 10; fill: none; fill-rule: nonzero; opacity: 1;" vector-effect="non-scaling-stroke"  x1="1.1499999999999915" y1="1.3499999999999943" x2="-1.1499999999999915" y2="-1.3499999999999943" />
</g>
		<g transform="matrix(1 0 0 1 -5.15 -73.95)" id="completed-graduate-during-coronavirus"  >
<polygon style="stroke: none; stroke-width: 1; stroke-dasharray: none; stroke-linecap: butt; stroke-dashoffset: 0; stroke-linejoin: miter; stroke-miterlimit: 4; fill: rgb(67,79,161); fill-rule: nonzero; opacity: 1;" vector-effect="non-scaling-stroke"  points="30.85,6.05 30.85,4.75 3.45,-6.05 -30.85,2.65 -30.85,4.55 3.45,-4.55 " />
</g>
		<g transform="matrix(1 0 0 1 -5.15 -72.3)" id="completed-graduate-during-coronavirus"  >
<polygon style="stroke: none; stroke-width: 1; stroke-dasharray: none; stroke-linecap: butt; stroke-dashoffset: 0; stroke-linejoin: miter; stroke-miterlimit: 4; fill: rgb(94,109,178); fill-rule: nonzero; opacity: 1;" vector-effect="non-scaling-stroke"  points="14.25,6.2 30.85,4.4 3.45,-6.2 -30.85,2.9 -15.05,5.4 " />
</g>
		<g transform="matrix(1 0 0 1 -3.1 -66.66)" id="completed-graduate-during-coronavirus"  >
<path style="stroke: none; stroke-width: 1; stroke-dasharray: none; stroke-linecap: butt; stroke-dashoffset: 0; stroke-linejoin: miter; stroke-miterlimit: 4; fill: rgb(67,79,161); fill-rule: nonzero; opacity: 1;" vector-effect="non-scaling-stroke"  transform=" translate(-146.9, -83.34)" d="M 149 77.3 L 146.9 77.3 L 144.8 77.3 C 140.4 77.3 135.8 79.89999999999999 132.3 83.5 L 132.3 83.5 L 132.3 88.5 C 132.3 89.3 133.20000000000002 89.7 133.8 89.1 C 137 86.1 140.9 84.6 144.8 84.5 C 145.3 84.5 146.9 84.4 146.9 84.4 C 146.9 84.4 148.5 84.5 149 84.5 C 152.9 84.6 156.8 86.1 160 89.1 C 160.6 89.6 161.5 89.19999999999999 161.5 88.5 L 161.5 83.5 C 158 79.9 153.4 77.3 149 77.3 z" stroke-linecap="round" />
</g>
		<g transform="matrix(1 0 0 1 15.85 -61.7)" id="completed-graduate-during-coronavirus"  >
<path style="stroke: rgb(251,179,37); stroke-width: 0.646; stroke-dasharray: none; stroke-linecap: butt; stroke-dashoffset: 0; stroke-linejoin: miter; stroke-miterlimit: 10; fill: none; fill-rule: nonzero; opacity: 1;" vector-effect="non-scaling-stroke"  transform=" translate(-165.85, -88.3)" d="M 163.7 76.1 C 163.7 76.1 167.29999999999998 81.3 167.6 90.89999999999999 C 168 100.49999999999999 168 100.49999999999999 168 100.49999999999999" stroke-linecap="round" />
</g>
		<g transform="matrix(1 0 0 1 17.96 -50.08)" id="completed-graduate-during-coronavirus"  >
<path style="stroke: none; stroke-width: 1; stroke-dasharray: none; stroke-linecap: butt; stroke-dashoffset: 0; stroke-linejoin: miter; stroke-miterlimit: 4; fill: rgb(251,179,37); fill-rule: nonzero; opacity: 1;" vector-effect="non-scaling-stroke"  transform=" translate(-167.96, -99.92)" d="M 168.5 101.8 L 168.2 101.7 C 168 101.60000000000001 167.79999999999998 101.60000000000001 167.6 101.7 L 167.29999999999998 101.8 C 166.79999999999998 102 166.29999999999998 101.6 166.39999999999998 101.1 L 166.49999999999997 100.8 C 166.49999999999997 100.6 166.49999999999997 100.39999999999999 166.29999999999998 100.2 L 166.1 100 C 165.7 99.6 166 98.9 166.5 98.9 L 166.8 98.9 C 167 98.9 167.20000000000002 98.80000000000001 167.3 98.60000000000001 L 167.4 98.30000000000001 C 167.70000000000002 97.80000000000001 168.4 97.80000000000001 168.6 98.4 L 168.7 98.7 C 168.79999999999998 98.9 169 99 169.2 99.10000000000001 L 169.5 99.2 C 170 99.3 170.2 100 169.8 100.3 L 169.60000000000002 100.5 C 169.40000000000003 100.6 169.40000000000003 100.9 169.40000000000003 101.1 L 169.40000000000003 101.39999999999999 C 169.5 101.7 168.9 102.1 168.5 101.8 z" stroke-linecap="round" />
</g>
		<g transform="matrix(1 0 0 1 62.95 -82.08)" id="completed-graduate-during-coronavirus"  >
<path style="stroke: none; stroke-width: 1; stroke-dasharray: none; stroke-linecap: butt; stroke-dashoffset: 0; stroke-linejoin: miter; stroke-miterlimit: 4; fill: rgb(221,158,145); fill-rule: nonzero; opacity: 1;" vector-effect="non-scaling-stroke"  transform=" translate(-212.95, -67.92)" d="M 221.2 73.4 C 221.2 73.4 218.89999999999998 70.9 215.7 70.7 C 212.5 70.5 207.1 69.8 205.5 68.10000000000001 C 203.8 66.4 204.1 59.70000000000001 212.9 63.70000000000001 C 221.8 67.7 221.2 73.4 221.2 73.4 z" stroke-linecap="round" />
</g>
		<g transform="matrix(1 0 0 1 68.05 -73.7)" id="completed-graduate-during-coronavirus"  >
<path style="stroke: none; stroke-width: 1; stroke-dasharray: none; stroke-linecap: butt; stroke-dashoffset: 0; stroke-linejoin: miter; stroke-miterlimit: 4; fill: rgb(248,173,156); fill-rule: nonzero; opacity: 1;" vector-effect="non-scaling-stroke"  transform=" translate(-218.05, -76.3)" d="M 204.1 65.2 C 204.5 66.3 208 68 210.4 68.5 C 212.8 69 213.70000000000002 65.9 213.70000000000002 65.9 C 213.70000000000002 65.9 213.70000000000002 65.9 214.60000000000002 67 C 215.50000000000003 68.1 219.60000000000002 74 219.60000000000002 74 L 217.40000000000003 96.1 C 222.90000000000003 97.3 228.20000000000005 98.89999999999999 233.40000000000003 100.8 L 233.80000000000004 86.5 C 234.00000000000003 78.2 231.00000000000003 70.1 225.50000000000003 63.9 C 225.50000000000003 63.9 225.40000000000003 63.8 225.40000000000003 63.8 C 221.70000000000005 59.8 215.00000000000003 54.099999999999994 212.70000000000005 52.099999999999994 C 210.40000000000003 49.99999999999999 202.20000000000005 59.39999999999999 202.30000000000004 60.89999999999999 C 202.40000000000003 62.39999999999999 204.30000000000004 63.79999999999999 204.30000000000004 63.79999999999999 C 204.30000000000004 63.79999999999999 203.6 64.2 204.1 65.2 z" stroke-linecap="round" />
</g>
		<g transform="matrix(1 0 0 1 58.6 -88.75)" id="completed-graduate-during-coronavirus"  >
<path style="stroke: rgb(208,132,135); stroke-width: 0.646; stroke-dasharray: none; stroke-linecap: round; stroke-dashoffset: 0; stroke-linejoin: round; stroke-miterlimit: 10; fill: none; fill-rule: nonzero; opacity: 1;" vector-effect="non-scaling-stroke"  transform=" translate(-208.6, -61.25)" d="M 204.1 63.7 C 204.1 63.7 207.5 57.900000000000006 210.1 56 C 211.5 54.9 212.29999999999998 54.9 212.29999999999998 54.9 M 213.1 58.1 C 213.1 58.1 209 62.5 208.1 64.2 C 207.4 65.60000000000001 208.1 67.60000000000001 208.1 67.60000000000001" stroke-linecap="round" />
</g>
		<g transform="matrix(1 0 0 1 61.8 -86.2)" id="completed-graduate-during-coronavirus"  >
<path style="stroke: none; stroke-width: 1; stroke-dasharray: none; stroke-linecap: butt; stroke-dashoffset: 0; stroke-linejoin: miter; stroke-miterlimit: 4; fill: rgb(208,132,135); fill-rule: nonzero; opacity: 1;" vector-effect="non-scaling-stroke"  transform=" translate(-211.8, -63.8)" d="M 213.9 65.4 L 212.8 64.2 L 213 61.900000000000006 L 212.4 64.4 L 211.5 64.60000000000001 L 210.9 62.80000000000001 L 210.9 64.9 L 209.70000000000002 65.7 L 211.70000000000002 64.9 C 211.70000000000002 64.9 212.60000000000002 64.80000000000001 213.00000000000003 65.10000000000001 C 213.40000000000003 65.4 213.9 65.4 213.9 65.4 z" stroke-linecap="round" />
</g>
		<g transform="matrix(1 0 0 1 -73.44 -82.08)" id="completed-graduate-during-coronavirus"  >
<path style="stroke: none; stroke-width: 1; stroke-dasharray: none; stroke-linecap: butt; stroke-dashoffset: 0; stroke-linejoin: miter; stroke-miterlimit: 4; fill: rgb(221,158,145); fill-rule: nonzero; opacity: 1;" vector-effect="non-scaling-stroke"  transform=" translate(-76.56, -67.92)" d="M 68.3 73.4 C 68.3 73.4 70.6 70.9 73.8 70.7 C 77 70.4 82.39999999999999 69.8 84 68.10000000000001 C 85.7 66.4 85.4 59.70000000000001 76.6 63.70000000000001 C 67.79999999999998 67.70000000000002 68.3 73.4 68.3 73.4 z" stroke-linecap="round" />
</g>
		<g transform="matrix(1 0 0 1 -78.4 -73.75)" id="completed-graduate-during-coronavirus"  >
<path style="stroke: none; stroke-width: 1; stroke-dasharray: none; stroke-linecap: butt; stroke-dashoffset: 0; stroke-linejoin: miter; stroke-miterlimit: 4; fill: rgb(248,173,156); fill-rule: nonzero; opacity: 1;" vector-effect="non-scaling-stroke"  transform=" translate(-71.6, -76.25)" d="M 85.5 65.2 C 85.1 66.3 81.6 68 79.2 68.5 C 76.8 69 75.9 65.9 75.9 65.9 C 75.9 65.9 75.9 65.9 75 67 C 74.1 68.1 70 74 70 74 L 72.2 96.1 C 66.7 97.3 61.400000000000006 98.89999999999999 56.2 100.8 L 55.800000000000004 86.5 C 55.6 78.2 58.6 70.1 64.10000000000001 63.9 C 64.10000000000001 63.9 64.2 63.8 64.2 63.8 C 67.9 59.7 74.6 54 77 52 C 79.3 49.9 87.5 59.3 87.4 60.8 C 87.30000000000001 62.3 85.4 63.699999999999996 85.4 63.699999999999996 C 85.4 63.699999999999996 85.9 64.2 85.5 65.2 z" stroke-linecap="round" />
</g>
		<g transform="matrix(1 0 0 1 -69.05 -88.75)" id="completed-graduate-during-coronavirus"  >
<path style="stroke: rgb(208,132,135); stroke-width: 0.646; stroke-dasharray: none; stroke-linecap: round; stroke-dashoffset: 0; stroke-linejoin: round; stroke-miterlimit: 10; fill: none; fill-rule: nonzero; opacity: 1;" vector-effect="non-scaling-stroke"  transform=" translate(-80.95, -61.25)" d="M 85.4 63.7 C 85.4 63.7 82 57.900000000000006 79.4 56 C 78 54.9 77.2 54.9 77.2 54.9 M 76.5 58.1 C 76.5 58.1 80.6 62.5 81.5 64.2 C 82.2 65.60000000000001 81.5 67.60000000000001 81.5 67.60000000000001" stroke-linecap="round" />
</g>
		<g transform="matrix(1 0 0 1 -72.3 -86.2)" id="completed-graduate-during-coronavirus"  >
<path style="stroke: none; stroke-width: 1; stroke-dasharray: none; stroke-linecap: butt; stroke-dashoffset: 0; stroke-linejoin: miter; stroke-miterlimit: 4; fill: rgb(208,132,135); fill-rule: nonzero; opacity: 1;" vector-effect="non-scaling-stroke"  transform=" translate(-77.7, -63.8)" d="M 75.6 65.4 L 76.69999999999999 64.2 L 76.49999999999999 61.900000000000006 L 77.09999999999998 64.4 L 77.99999999999999 64.60000000000001 L 78.59999999999998 62.80000000000001 L 78.59999999999998 64.9 L 79.79999999999998 65.7 L 77.79999999999998 64.9 C 77.79999999999998 64.9 76.89999999999998 64.80000000000001 76.49999999999999 65.10000000000001 C 76.1 65.4 75.6 65.4 75.6 65.4 z" stroke-linecap="round" />
</g>
		<g transform="matrix(1 0 0 1 -2.55 -1.45)" id="completed-graduate-during-coronavirus"  >
<path style="stroke: none; stroke-width: 1; stroke-dasharray: none; stroke-linecap: butt; stroke-dashoffset: 0; stroke-linejoin: miter; stroke-miterlimit: 4; fill: rgb(240,124,116); fill-rule: nonzero; opacity: 1;" vector-effect="non-scaling-stroke"  transform=" translate(-147.45, -148.55)" d="M 154.4 117.3 C 152 120.5 141.70000000000002 120.7 138.20000000000002 116.89999999999999 L 137.8 117.49999999999999 L 135.8 118.39999999999999 L 135.8 180.2 L 159.10000000000002 179.79999999999998 L 159.10000000000002 119.09999999999998 L 154.8 117.39999999999998 C 154.8 117.4 154.4 117.3 154.4 117.3 z" stroke-linecap="round" />
</g>
		<g transform="matrix(1 0 0 1 -5.15 7.45)" id="completed-graduate-during-coronavirus"  >
<path style="stroke: none; stroke-width: 1; stroke-dasharray: none; stroke-linecap: butt; stroke-dashoffset: 0; stroke-linejoin: miter; stroke-miterlimit: 4; fill: rgb(82,105,176); fill-rule: nonzero; opacity: 1;" vector-effect="non-scaling-stroke"  transform=" translate(-144.85, -157.45)" d="M 240.7 130.3 L 237.6 82.30000000000001 L 212.29999999999998 82.30000000000001 L 208.2 121.20000000000002 L 180.29999999999998 124.20000000000002 L 154.79999999999998 117.50000000000001 L 146.7 145.3 L 144.89999999999998 145.3 L 137.79999999999998 117.50000000000001 L 110.69999999999999 124.40000000000002 L 81.49999999999999 121.30000000000003 L 77.39999999999999 82.40000000000003 L 52.1 82.40000000000003 L 49 130.40000000000003 C 48.4 139.70000000000005 54.7 148.10000000000002 63.8 150.10000000000002 L 106.8 159.50000000000003 L 100.5 232.60000000000002 L 143.6 232.60000000000002 L 148 232.60000000000002 L 191 232.60000000000002 L 184.7 159.10000000000002 L 225.79999999999998 150.10000000000002 C 235 147.9 241.3 139.6 240.7 130.3 z" stroke-linecap="round" />
</g>
		<g transform="matrix(1 0 0 1 -3.85 -15.8)" id="completed-graduate-during-coronavirus"  >
<path style="stroke: rgb(255,255,255); stroke-width: 0.646; stroke-dasharray: none; stroke-linecap: round; stroke-dashoffset: 0; stroke-linejoin: round; stroke-miterlimit: 10; fill: none; fill-rule: nonzero; opacity: 1;" vector-effect="non-scaling-stroke"  transform=" translate(-146.15, -134.2)" d="M 158.7 118.8 C 155 129.1 151.6 139.2 147.7 149.6 L 143.39999999999998 149.6 C 139.99999999999997 139.5 136.79999999999998 129.1 133.59999999999997 118.8" stroke-linecap="round" />
</g>
		<g transform="matrix(1 0 0 1 74.85 -62.85)" id="completed-graduate-during-coronavirus"  >
<polygon style="stroke: none; stroke-width: 1; stroke-dasharray: none; stroke-linecap: butt; stroke-dashoffset: 0; stroke-linejoin: miter; stroke-miterlimit: 4; fill: rgb(0,0,0); fill-rule: nonzero; opacity: 1;" vector-effect="non-scaling-stroke"  points="13.05,0.15 -13.05,0.15 -12.95,-0.15 13.05,-0.15 " />
</g>
		<g transform="matrix(1 0 0 1 -85.15 -62.8)" id="completed-graduate-during-coronavirus"  >
<line style="stroke: none; stroke-width: 1; stroke-dasharray: none; stroke-linecap: butt; stroke-dashoffset: 0; stroke-linejoin: miter; stroke-miterlimit: 4; fill: rgb(255,255,255); fill-rule: nonzero; opacity: 1;" vector-effect="non-scaling-stroke"  x1="13.050000000000004" y1="0" x2="-13.050000000000004" y2="0" />
</g>
		<g transform="matrix(1 0 0 1 -85.15 -62.85)" id="completed-graduate-during-coronavirus"  >
<polygon style="stroke: none; stroke-width: 1; stroke-dasharray: none; stroke-linecap: butt; stroke-dashoffset: 0; stroke-linejoin: miter; stroke-miterlimit: 4; fill: rgb(0,0,0); fill-rule: nonzero; opacity: 1;" vector-effect="non-scaling-stroke"  points="-13.05,0.15 13.05,0.15 13.05,-0.15 -13.05,-0.15 " />
</g>
		<g transform="matrix(1 0 0 1 -4.25 45.59)" id="completed-graduate-during-coronavirus"  >
<path style="stroke: none; stroke-width: 1; stroke-dasharray: none; stroke-linecap: butt; stroke-dashoffset: 0; stroke-linejoin: miter; stroke-miterlimit: 4; fill: rgb(69,87,148); fill-rule: nonzero; opacity: 1;" vector-effect="non-scaling-stroke"  transform=" translate(-145.75, -195.59)" d="M 184.7 158.9 C 181.89999999999998 158.20000000000002 179.2 160.5 179.6 163.4 C 180.7 172.4 182.2 188.70000000000002 178.7 194.5 C 173.89999999999998 202.7 181.2 211.1 180.79999999999998 215.8 C 180.49999999999997 220.5 180.79999999999998 232.4 180.79999999999998 232.4 L 191 232.4 L 184.7 158.9 L 184.7 158.9 z M 108.5 232.4 L 107.5 190.3 C 107.5 188.20000000000002 104.3 188.10000000000002 104.1 190.20000000000002 L 100.5 232.40000000000003 L 108.5 232.40000000000003 z" stroke-linecap="round" />
</g>
		<g transform="matrix(1 0 0 1 99.3 2.6)" id="completed-graduate-during-coronavirus"  >
<path style="stroke: none; stroke-width: 1; stroke-dasharray: none; stroke-linecap: butt; stroke-dashoffset: 0; stroke-linejoin: miter; stroke-miterlimit: 4; fill: rgb(235,0,139); fill-rule: nonzero; opacity: 1;" vector-effect="non-scaling-stroke"  transform=" translate(-249.3, -152.6)" d="M 250.1 149.1 C 250.1 149.1 250.1 150.5 249.4 151.7 C 248.8 153 247.1 154.1 247.1 154.1 L 248.79999999999998 156.1 C 248.79999999999998 156.1 249.39999999999998 155.5 250.49999999999997 154.1 C 251.59999999999997 152.7 251.49999999999997 150.1 251.49999999999997 150.1 L 250.1 149.1 z" stroke-linecap="round" />
</g>
		<g transform="matrix(1 0 0 1 86.45 -30.3)" id="completed-graduate-during-coronavirus"  >
<path style="stroke: none; stroke-width: 1; stroke-dasharray: none; stroke-linecap: butt; stroke-dashoffset: 0; stroke-linejoin: miter; stroke-miterlimit: 4; fill: rgb(0,150,128); fill-rule: nonzero; opacity: 1;" vector-effect="non-scaling-stroke"  transform=" translate(-236.45, -119.7)" d="M 238.7 117.3 L 237.2 116.2 C 237.2 116.2 237.2 117.60000000000001 236.5 118.8 C 235.9 120.1 234.2 121.2 234.2 121.2 L 235.89999999999998 123.2 C 235.89999999999998 123.2 236.49999999999997 122.60000000000001 237.59999999999997 121.2 C 238.69999999999996 119.8 238.7 117.3 238.7 117.3 z" stroke-linecap="round" />
</g>
		<g transform="matrix(1 0 0 1 16.15 -45.06)" id="completed-graduate-during-coronavirus"  >
<path style="stroke: none; stroke-width: 1; stroke-dasharray: none; stroke-linecap: butt; stroke-dashoffset: 0; stroke-linejoin: miter; stroke-miterlimit: 4; fill: rgb(255,255,255); fill-rule: nonzero; opacity: 1;" vector-effect="non-scaling-stroke"  transform=" translate(-166.15, -104.94)" d="M 165.8 108.4 C 166 108.2 166.60000000000002 107.60000000000001 167.4 106.5 C 168.5 105.1 168.4 102.5 168.4 102.5 L 166.9 101.4 C 166.9 101.4 166.9 102.80000000000001 166.20000000000002 104 C 165.60000000000002 105.3 163.9 106.4 163.9 106.4 L 165.5 108.2 L 165.8 108.4 C 165.7 108.5 165.7 108.5 165.8 108.4 z" stroke-linecap="round" />
</g>
		<g transform="matrix(1 0 0 1 82.85 38.9)" id="completed-graduate-during-coronavirus"  >
<path style="stroke: none; stroke-width: 1; stroke-dasharray: none; stroke-linecap: butt; stroke-dashoffset: 0; stroke-linejoin: miter; stroke-miterlimit: 4; fill: rgb(240,124,116); fill-rule: nonzero; opacity: 1;" vector-effect="non-scaling-stroke"  transform=" translate(-232.85, -188.9)" d="M 233.4 192.4 L 235.1 190.4 C 235.1 190.4 233.4 189.3 232.79999999999998 188 C 232.2 186.7 232.1 185.4 232.1 185.4 L 230.6 186.5 C 230.6 186.5 230.5 189 231.6 190.5 C 232.8 191.8 233.4 192.4 233.4 192.4 z" stroke-linecap="round" />
</g>
		<g transform="matrix(1 0 0 1 97.11 73.85)" id="completed-graduate-during-coronavirus"  >
<path style="stroke: none; stroke-width: 1; stroke-dasharray: none; stroke-linecap: butt; stroke-dashoffset: 0; stroke-linejoin: miter; stroke-miterlimit: 4; fill: rgb(138,212,234); fill-rule: nonzero; opacity: 1;" vector-effect="non-scaling-stroke"  transform=" translate(-247.11, -223.85)" d="M 247.1 222.9 C 246.5 221.6 246.4 220.3 246.4 220.3 L 244.9 221.4 C 244.9 221.4 244.8 223.9 245.9 225.4 C 247 226.8 247.6 227.4 247.6 227.4 L 249.29999999999998 225.4 C 249.5 225.3 247.7 224.1 247.1 222.9 z" stroke-linecap="round" />
</g>
		<g transform="matrix(1 0 0 1 40.1 -48.05)" id="completed-graduate-during-coronavirus"  >
<path style="stroke: none; stroke-width: 1; stroke-dasharray: none; stroke-linecap: butt; stroke-dashoffset: 0; stroke-linejoin: miter; stroke-miterlimit: 4; fill: rgb(210,67,74); fill-rule: nonzero; opacity: 1;" vector-effect="non-scaling-stroke"  transform=" translate(-190.1, -101.95)" d="M 190.1 101 C 189.5 99.7 189.4 98.4 189.4 98.4 L 187.9 99.5 C 187.9 99.5 187.8 102 188.9 103.5 C 190 104.9 190.6 105.5 190.6 105.5 L 192.29999999999998 103.5 C 192.4 103.4 190.7 102.3 190.1 101 z" stroke-linecap="round" />
</g>
		<g transform="matrix(1 0 0 1 -113.8 2.6)" id="completed-graduate-during-coronavirus"  >
<path style="stroke: none; stroke-width: 1; stroke-dasharray: none; stroke-linecap: butt; stroke-dashoffset: 0; stroke-linejoin: miter; stroke-miterlimit: 4; fill: rgb(235,0,139); fill-rule: nonzero; opacity: 1;" vector-effect="non-scaling-stroke"  transform=" translate(-36.2, -152.6)" d="M 35.4 149.1 C 35.4 149.1 35.4 150.5 36.1 151.7 C 36.7 153 38.4 154.1 38.4 154.1 L 36.699999999999996 156.1 C 36.699999999999996 156.1 36.099999999999994 155.5 34.99999999999999 154.1 C 33.89999999999999 152.7 33.99999999999999 150.1 33.99999999999999 150.1 L 35.4 149.1 z" stroke-linecap="round" />
</g>
		<g transform="matrix(1 0 0 1 -100.95 -30.3)" id="completed-graduate-during-coronavirus"  >
<path style="stroke: none; stroke-width: 1; stroke-dasharray: none; stroke-linecap: butt; stroke-dashoffset: 0; stroke-linejoin: miter; stroke-miterlimit: 4; fill: rgb(0,150,128); fill-rule: nonzero; opacity: 1;" vector-effect="non-scaling-stroke"  transform=" translate(-49.05, -119.7)" d="M 46.8 117.3 L 48.3 116.2 C 48.3 116.2 48.3 117.60000000000001 49 118.8 C 49.6 120.1 51.3 121.2 51.3 121.2 L 49.599999999999994 123.2 C 49.599999999999994 123.2 48.99999999999999 122.60000000000001 47.89999999999999 121.2 C 46.7 119.8 46.8 117.3 46.8 117.3 z" stroke-linecap="round" />
</g>
		<g transform="matrix(1 0 0 1 -30.55 -45.06)" id="completed-graduate-during-coronavirus"  >
<path style="stroke: none; stroke-width: 1; stroke-dasharray: none; stroke-linecap: butt; stroke-dashoffset: 0; stroke-linejoin: miter; stroke-miterlimit: 4; fill: rgb(255,255,255); fill-rule: nonzero; opacity: 1;" vector-effect="non-scaling-stroke"  transform=" translate(-119.45, -104.94)" d="M 119.8 108.4 C 119.6 108.2 119 107.60000000000001 118.2 106.5 C 117.10000000000001 105.1 117.2 102.5 117.2 102.5 L 118.7 101.4 C 118.7 101.4 118.7 102.80000000000001 119.4 104 C 120 105.3 121.7 106.4 121.7 106.4 L 120.10000000000001 108.2 L 119.8 108.4 C 119.8 108.5 119.8 108.5 119.8 108.4 z" stroke-linecap="round" />
</g>
		<g transform="matrix(1 0 0 1 -97.35 38.9)" id="completed-graduate-during-coronavirus"  >
<path style="stroke: none; stroke-width: 1; stroke-dasharray: none; stroke-linecap: butt; stroke-dashoffset: 0; stroke-linejoin: miter; stroke-miterlimit: 4; fill: rgb(240,124,116); fill-rule: nonzero; opacity: 1;" vector-effect="non-scaling-stroke"  transform=" translate(-52.65, -188.9)" d="M 52.1 192.4 L 50.4 190.4 C 50.4 190.4 52.1 189.3 52.699999999999996 188 C 53.3 186.7 53.4 185.4 53.4 185.4 L 54.9 186.5 C 54.9 186.5 55 189 53.9 190.5 C 52.7 191.8 52.1 192.4 52.1 192.4 z" stroke-linecap="round" />
</g>
		<g transform="matrix(1 0 0 1 -111.61 73.85)" id="completed-graduate-during-coronavirus"  >
<path style="stroke: none; stroke-width: 1; stroke-dasharray: none; stroke-linecap: butt; stroke-dashoffset: 0; stroke-linejoin: miter; stroke-miterlimit: 4; fill: rgb(138,212,234); fill-rule: nonzero; opacity: 1;" vector-effect="non-scaling-stroke"  transform=" translate(-38.39, -223.85)" d="M 38.4 222.9 C 39 221.6 39.1 220.3 39.1 220.3 L 40.6 221.4 C 40.6 221.4 40.7 223.9 39.6 225.4 C 38.5 226.8 37.9 227.4 37.9 227.4 L 36.199999999999996 225.4 C 36 225.3 37.8 224.1 38.4 222.9 z" stroke-linecap="round" />
</g>
		<g transform="matrix(1 0 0 1 -54.6 -48.05)" id="completed-graduate-during-coronavirus"  >
<path style="stroke: none; stroke-width: 1; stroke-dasharray: none; stroke-linecap: butt; stroke-dashoffset: 0; stroke-linejoin: miter; stroke-miterlimit: 4; fill: rgb(210,67,74); fill-rule: nonzero; opacity: 1;" vector-effect="non-scaling-stroke"  transform=" translate(-95.4, -101.95)" d="M 95.4 101 C 96 99.7 96.10000000000001 98.4 96.10000000000001 98.4 L 97.60000000000001 99.5 C 97.60000000000001 99.5 97.7 102 96.60000000000001 103.5 C 95.50000000000001 104.9 94.9 105.5 94.9 105.5 L 93.2 103.5 C 93.1 103.4 94.8 102.3 95.4 101 z" stroke-linecap="round" />
</g>
		<g transform="matrix(1 0 0 1 4.6 82.4)" id="completed-graduate-during-coronavirus"  >
<line style="stroke: rgb(0,4,37); stroke-width: 0.646; stroke-dasharray: none; stroke-linecap: round; stroke-dashoffset: 0; stroke-linejoin: round; stroke-miterlimit: 10; fill: none; fill-rule: nonzero; opacity: 1;" vector-effect="non-scaling-stroke"  x1="128.5" y1="0" x2="-128.5" y2="0" />
</g>
</g>
</g>
<g transform="matrix(NaN NaN NaN NaN 0 0)"  >
<g style=""   >
</g>
</g>
</svg>